<svg width="20" height="21" viewBox="0 0 20 21" fill="none" xmlns="http://www.w3.org/2000/svg">
<path d="M20 10.1383C20 15.6612 15.5229 20.1383 10 20.1383C4.47714 20.1383 0 15.6612 0 10.1383C0 4.61544 4.47714 0.138306 10 0.138306C15.5229 0.138306 20 4.61544 20 10.1383ZM8.84331 15.4332L16.2627 8.01387C16.5146 7.76193 16.5146 7.35343 16.2627 7.10149L15.3503 6.18911C15.0983 5.93714 14.6898 5.93714 14.4379 6.18911L8.3871 12.2398L5.56214 9.41488C5.3102 9.16294 4.90169 9.16294 4.64972 9.41488L3.73734 10.3273C3.4854 10.5792 3.4854 10.9877 3.73734 11.2396L7.93089 15.4332C8.18286 15.6852 8.59133 15.6852 8.84331 15.4332Z" fill="white"/>
</svg>
