<?xml version="1.0" encoding="utf-8"?>
<!-- Generator: Adobe Illustrator 27.0.0, SVG Export Plug-In . SVG Version: 6.00 Build 0)  -->
<svg version="1.1" id="Calque_1" xmlns="http://www.w3.org/2000/svg" xmlns:xlink="http://www.w3.org/1999/xlink" x="0px" y="0px"
	 viewBox="0 0 18 18" style="enable-background:new 0 0 18 18;" xml:space="preserve">
<style type="text/css">
	.st0{fill:#FFFFFF;}
</style>
<path class="st0" d="M9,1c0,0.2,0.5,3.1,0.5,4.3c0,1.7-0.9,3-2.2,3.5l0.4,7.9c0,0.5-0.3,0.8-0.8,0.8H5c-0.4,0-0.8-0.4-0.7-0.8
	l0.4-7.9C3.4,8.3,2.5,7,2.5,5.3C2.5,4.1,3,1.2,3,1c0.1-0.7,1.4-0.7,1.5,0v4.7c0,0.1,0.5,0.1,0.5,0C5,4.9,5.2,1.1,5.2,1
	c0.1-0.7,1.4-0.7,1.5,0C6.8,1.1,7,4.9,7,5.7c0,0.1,0.5,0.1,0.5,0V1C7.6,0.3,8.9,0.3,9,1z M12.7,10.5l-0.5,6.1c0,0.5,0.3,0.9,0.7,0.9
	h1.8c0.4,0,0.7-0.4,0.7-0.8V1.3c0-0.4-0.3-0.8-0.7-0.8C12.2,0.5,7.8,6.4,12.7,10.5z"/>
</svg>
