<?xml version="1.0" encoding="utf-8"?>
<!-- Generator: Adobe Illustrator 27.0.0, SVG Export Plug-In . SVG Version: 6.00 Build 0)  -->
<svg version="1.1" xmlns="http://www.w3.org/2000/svg" xmlns:xlink="http://www.w3.org/1999/xlink" width="18" height="18"
	 viewBox="0 0 18 18" style="enable-background:new 0 0 18 18;" xml:space="preserve">
<path class="st0" d="M13.2,6.9H9.4v1.9c0,1.3-0.8,2.4-1.8,2.4c-1,0-1.8-1.1-1.8-2.4v-4L4.2,6C3.7,6.4,3.4,7.1,3.4,7.8v1.6l-2,1.5
	c-0.4,0.3-0.5,0.9-0.3,1.5l2,4.6c0.2,0.5,0.7,0.7,1.1,0.4l2.6-2h3.4c0.9,0,1.6-1,1.6-2.1h0.4c0.4,0,0.8-0.5,0.8-1.1v-2.1h0.2
	c0.3,0,0.6-0.4,0.6-0.8V7.7C13.8,7.2,13.5,6.9,13.2,6.9z M16.9,5.6l-2-4.6c-0.2-0.5-0.7-0.7-1.1-0.4l-2.6,2H8.7
	c-0.3,0-0.6,0.1-0.8,0.3L7,3.6C6.7,3.8,6.6,4.2,6.6,4.5v4.2c0,0.7,0.4,1.3,1,1.3c0.6,0,1-0.6,1-1.3V5.8h4.6c0.8,0,1.4,0.8,1.4,1.9
	v0.9l2-1.5C17,6.8,17.1,6.1,16.9,5.6z"/>
</svg>
