<svg width="15" height="21" viewBox="0 0 15 21" fill="none" xmlns="http://www.w3.org/2000/svg">
<path d="M12.0488 0.129639H2.93572C1.85761 0.129639 0.98291 0.969482 0.98291 2.00464V18.2546C0.98291 19.2898 1.85761 20.1296 2.93572 20.1296H12.0488C13.127 20.1296 14.0016 19.2898 14.0016 18.2546V2.00464C14.0016 0.969482 13.127 0.129639 12.0488 0.129639ZM7.49228 18.8796C6.77218 18.8796 6.19041 18.321 6.19041 17.6296C6.19041 16.9382 6.77218 16.3796 7.49228 16.3796C8.21238 16.3796 8.79415 16.9382 8.79415 17.6296C8.79415 18.321 8.21238 18.8796 7.49228 18.8796ZM12.0488 14.6609C12.0488 14.9187 11.8291 15.1296 11.5606 15.1296H3.42392C3.15541 15.1296 2.93572 14.9187 2.93572 14.6609V2.47339C2.93572 2.21558 3.15541 2.00464 3.42392 2.00464H11.5606C11.8291 2.00464 12.0488 2.21558 12.0488 2.47339V14.6609Z" fill="#7E7E7E"/>
</svg>
